<?xml version="1.0" encoding="UTF-8"?>
<!DOCTYPE svg PUBLIC "-//W3C//DTD SVG 1.1//EN" "http://www.w3.org/Graphics/SVG/1.1/DTD/svg11.dtd">
<svg xmlns="http://www.w3.org/2000/svg" version="1.1" width="400px" height="400px" style="shape-rendering:geometricPrecision; text-rendering:geometricPrecision; image-rendering:optimizeQuality; fill-rule:evenodd; clip-rule:evenodd" xmlns:xlink="http://www.w3.org/1999/xlink">
<g><path style="opacity:1" fill="#f9f9f9" d="M -0.5,-0.5 C 132.833,-0.5 266.167,-0.5 399.5,-0.5C 399.5,132.833 399.5,266.167 399.5,399.5C 266.167,399.5 132.833,399.5 -0.5,399.5C -0.5,266.167 -0.5,132.833 -0.5,-0.5 Z"/></g>
<g><path style="opacity:1" fill="#52c1f2" d="M 316.5,85.5 C 315.167,86.1667 314.167,87.1667 313.5,88.5C 263.085,136.747 213.085,185.58 163.5,235C 162.833,235.667 162.167,235.667 161.5,235C 150.632,223.965 139.632,213.131 128.5,202.5C 127.4,201.395 126.733,200.062 126.5,198.5C 165.3,159.868 204.3,121.368 243.5,83C 268.746,81.3526 294.079,81.0192 319.5,82C 318.29,83.0391 317.29,84.2058 316.5,85.5 Z"/></g>
<g><path style="opacity:1" fill="#d4d8da" d="M 313.5,88.5 C 264.061,137.772 214.394,186.939 164.5,236C 163.167,236.667 161.833,236.667 160.5,236C 149.887,225.716 139.387,215.55 129,205.5C 128.517,204.552 128.351,203.552 128.5,202.5C 139.632,213.131 150.632,223.965 161.5,235C 162.167,235.667 162.833,235.667 163.5,235C 213.085,185.58 263.085,136.747 313.5,88.5 Z"/></g>
<g><path style="opacity:1" fill="#eaeaeb" d="M 316.5,85.5 C 317.203,87.0343 317.036,88.701 316,90.5C 307.969,98.1968 300.302,106.197 293,114.5C 250.471,156.696 207.638,198.529 164.5,240C 163.167,240.667 161.833,240.667 160.5,240C 146.57,227.764 134.57,215.431 124.5,203C 124.899,201.272 125.566,199.772 126.5,198.5C 126.733,200.062 127.4,201.395 128.5,202.5C 128.351,203.552 128.517,204.552 129,205.5C 139.387,215.55 149.887,225.716 160.5,236C 161.833,236.667 163.167,236.667 164.5,236C 214.394,186.939 264.061,137.772 313.5,88.5C 314.167,87.1667 315.167,86.1667 316.5,85.5 Z"/></g>
<g><path style="opacity:1" fill="#52c1f2" d="M 317.5,192.5 C 296.807,212.861 276.14,233.194 255.5,253.5C 242.813,241.811 230.146,230.145 217.5,218.5C 226.298,209.202 235.298,200.035 244.5,191C 269.167,190.333 293.833,190.333 318.5,191C 317.944,191.383 317.611,191.883 317.5,192.5 Z"/></g>
<g><path style="opacity:1" fill="#27b4f2" d="M 217.5,218.5 C 230.146,230.145 242.813,241.811 255.5,253.5C 255.5,253.833 255.5,254.167 255.5,254.5C 242.478,265.856 230.145,277.856 218.5,290.5C 206.833,279.167 195.167,267.833 183.5,256.5C 182.2,255.399 181.7,254.066 182,252.5C 194.005,241.327 205.839,229.994 217.5,218.5 Z"/></g>
<g><path style="opacity:1" fill="#dedfe0" d="M 317.5,192.5 C 318.028,193.847 318.195,195.181 318,196.5C 298.07,215.587 277.903,235.253 257.5,255.5C 256.508,255.672 255.842,255.338 255.5,254.5C 255.5,254.167 255.5,253.833 255.5,253.5C 276.14,233.194 296.807,212.861 317.5,192.5 Z"/></g>
<g><path style="opacity:1" fill="#f90c65" d="M 158.5,292.5 C 146.083,314.477 127.749,321.644 103.5,314C 98.4049,311.394 93.7382,308.228 89.5,304.5C 78.0414,289.466 76.5414,273.466 85,256.5C 100.07,236.692 118.903,232.192 141.5,243C 159.154,255.185 164.821,271.685 158.5,292.5 Z"/></g>
<g><path style="opacity:1" fill="#025196" d="M 255.5,254.5 C 255.842,255.338 256.508,255.672 257.5,255.5C 277.606,276.439 298.273,296.939 319.5,317C 318.552,317.483 317.552,317.649 316.5,317.5C 292.831,317.667 269.164,317.5 245.5,317C 236.605,307.937 227.605,299.104 218.5,290.5C 230.145,277.856 242.478,265.856 255.5,254.5 Z"/></g>
<g><path style="opacity:1" fill="#dcd9da" d="M 158.5,292.5 C 154.123,307.707 144.123,316.874 128.5,320C 120.022,321.011 111.689,320.345 103.5,318C 101.082,314.953 98.0819,312.62 94.5,311C 92.2101,309.223 90.5434,307.056 89.5,304.5C 93.7382,308.228 98.4049,311.394 103.5,314C 127.749,321.644 146.083,314.477 158.5,292.5 Z"/></g>
<g><path style="opacity:1" fill="#dbdcdd" d="M 183.5,256.5 C 195.167,267.833 206.833,279.167 218.5,290.5C 227.605,299.104 236.605,307.937 245.5,317C 269.164,317.5 292.831,317.667 316.5,317.5C 316.5,318.833 316.5,320.167 316.5,321.5C 292.831,321.667 269.164,321.5 245.5,321C 226.608,303.106 208.108,284.94 190,266.5C 187.19,263.536 185.024,260.202 183.5,256.5 Z"/></g>
</svg>
